<svg width="40" height="40" viewBox="0 0 58 58" fill="none" xmlns="http://www.w3.org/2000/svg">
<path fill-rule="evenodd" clip-rule="evenodd" d="M3.625 29C3.625 35.7299 6.29843 42.1841 11.0572 46.9428C15.8159 51.7016 22.2701 54.375 29 54.375C35.7299 54.375 42.1841 51.7016 46.9428 46.9428C51.7016 42.1841 54.375 35.7299 54.375 29C54.375 22.2701 51.7016 15.8159 46.9428 11.0572C42.1841 6.29843 35.7299 3.625 29 3.625C22.2701 3.625 15.8159 6.29843 11.0572 11.0572C6.29843 15.8159 3.625 22.2701 3.625 29ZM58 29C58 36.6913 54.9447 44.0675 49.5061 49.5061C44.0675 54.9447 36.6913 58 29 58C21.3087 58 13.9325 54.9447 8.4939 49.5061C3.05535 44.0675 0 36.6913 0 29C0 21.3087 3.05535 13.9325 8.4939 8.4939C13.9325 3.05535 21.3087 0 29 0C36.6913 0 44.0675 3.05535 49.5061 8.4939C54.9447 13.9325 58 21.3087 58 29ZM16.3125 27.1875C15.8318 27.1875 15.3708 27.3785 15.0309 27.7184C14.691 28.0583 14.5 28.5193 14.5 29C14.5 29.4807 14.691 29.9417 15.0309 30.2816C15.3708 30.6215 15.8318 30.8125 16.3125 30.8125H37.3121L29.5292 38.5918C29.3607 38.7603 29.2271 38.9603 29.1359 39.1805C29.0447 39.4007 28.9977 39.6367 28.9977 39.875C28.9977 40.1133 29.0447 40.3493 29.1359 40.5695C29.2271 40.7897 29.3607 40.9897 29.5292 41.1582C29.6978 41.3268 29.8978 41.4604 30.118 41.5516C30.3382 41.6428 30.5742 41.6898 30.8125 41.6898C31.0508 41.6898 31.2868 41.6428 31.507 41.5516C31.7272 41.4604 31.9272 41.3268 32.0957 41.1582L42.9707 30.2833C43.1395 30.1149 43.2735 29.9149 43.3648 29.6947C43.4562 29.4745 43.5032 29.2384 43.5032 29C43.5032 28.7616 43.4562 28.5255 43.3648 28.3053C43.2735 28.0851 43.1395 27.8851 42.9707 27.7167L32.0957 16.8417C31.9272 16.6732 31.7272 16.5396 31.507 16.4484C31.2868 16.3572 31.0508 16.3102 30.8125 16.3102C30.5742 16.3102 30.3382 16.3572 30.118 16.4484C29.8978 16.5396 29.6978 16.6732 29.5292 16.8417C29.3607 17.0103 29.2271 17.2103 29.1359 17.4305C29.0447 17.6507 28.9977 17.8867 28.9977 18.125C28.9977 18.3633 29.0447 18.5993 29.1359 18.8195C29.2271 19.0397 29.3607 19.2397 29.5292 19.4083L37.3121 27.1875H16.3125Z" fill="#1C9CE3"/>
</svg>
