<svg width="40" height="40" viewBox="0 0 58 58" fill="none" xmlns="http://www.w3.org/2000/svg">
<path fill-rule="evenodd" clip-rule="evenodd" d="M54.375 29C54.375 35.7299 51.7016 42.1841 46.9428 46.9428C42.1841 51.7016 35.7299 54.375 29 54.375C22.2701 54.375 15.8159 51.7016 11.0572 46.9428C6.29843 42.1841 3.625 35.7299 3.625 29C3.625 22.2701 6.29843 15.8159 11.0572 11.0572C15.8159 6.29843 22.2701 3.625 29 3.625C35.7299 3.625 42.1841 6.29843 46.9428 11.0572C51.7016 15.8159 54.375 22.2701 54.375 29ZM0 29C0 36.6913 3.05535 44.0675 8.4939 49.5061C13.9325 54.9447 21.3087 58 29 58C36.6913 58 44.0675 54.9447 49.5061 49.5061C54.9447 44.0675 58 36.6913 58 29C58 21.3087 54.9447 13.9325 49.5061 8.4939C44.0675 3.05535 36.6913 0 29 0C21.3087 0 13.9325 3.05535 8.4939 8.4939C3.05535 13.9325 0 21.3087 0 29ZM41.6875 27.1875C42.1682 27.1875 42.6292 27.3785 42.9691 27.7184C43.309 28.0583 43.5 28.5193 43.5 29C43.5 29.4807 43.309 29.9417 42.9691 30.2816C42.6292 30.6215 42.1682 30.8125 41.6875 30.8125H20.6879L28.4708 38.5918C28.6393 38.7603 28.7729 38.9603 28.8641 39.1805C28.9553 39.4007 29.0023 39.6367 29.0023 39.875C29.0023 40.1133 28.9553 40.3493 28.8641 40.5695C28.7729 40.7897 28.6393 40.9897 28.4708 41.1582C28.3022 41.3268 28.1022 41.4604 27.882 41.5516C27.6618 41.6428 27.4258 41.6898 27.1875 41.6898C26.9492 41.6898 26.7132 41.6428 26.493 41.5516C26.2728 41.4604 26.0728 41.3268 25.9043 41.1582L15.0293 30.2833C14.8605 30.1149 14.7265 29.9149 14.6352 29.6947C14.5438 29.4745 14.4968 29.2384 14.4968 29C14.4968 28.7616 14.5438 28.5255 14.6352 28.3053C14.7265 28.0851 14.8605 27.8851 15.0293 27.7167L25.9043 16.8417C26.0728 16.6732 26.2728 16.5396 26.493 16.4484C26.7132 16.3572 26.9492 16.3102 27.1875 16.3102C27.4258 16.3102 27.6618 16.3572 27.882 16.4484C28.1022 16.5396 28.3022 16.6732 28.4708 16.8417C28.6393 17.0103 28.7729 17.2103 28.8641 17.4305C28.9553 17.6507 29.0023 17.8867 29.0023 18.125C29.0023 18.3633 28.9553 18.5993 28.8641 18.8195C28.7729 19.0397 28.6393 19.2397 28.4708 19.4083L20.6879 27.1875H41.6875Z" fill="#1C9CE3"/>
</svg>
