<svg width="174" height="44" viewBox="0 0 184 54" fill="none" xmlns="http://www.w3.org/2000/svg">
<path d="M17.1597 33.6957V47.2867C17.1597 47.8078 16.9433 48.3075 16.558 48.6757C16.173 49.0442 15.6505 49.2511 15.1057 49.2511C14.561 49.2511 14.0385 49.0442 13.6533 48.6757C13.268 48.3075 13.0516 47.8078 13.0516 47.2867V33.7145C13.6236 34.114 14.3092 34.3369 15.0172 34.3537C15.7889 34.3747 16.5451 34.1426 17.1597 33.6957ZM34.6536 29.767C34.1323 29.767 33.6322 29.9651 33.2637 30.3176C32.8951 30.67 32.688 31.1482 32.688 31.6468V34.0153C32.688 34.5364 32.9044 35.036 33.2896 35.4043C33.6747 35.7727 34.1971 35.9797 34.742 35.9797C35.2869 35.9797 35.8093 35.7727 36.1944 35.4043C36.5797 35.036 36.7961 34.5364 36.7961 34.0153V31.7408C36.8114 31.4712 36.7658 31.2016 36.6624 30.9505C36.559 30.6993 36.4004 30.4723 36.197 30.285C35.9937 30.0978 35.7506 29.9546 35.4844 29.8651C35.2181 29.7758 34.9346 29.7423 34.6536 29.767ZM8.58968 38.8464C7.8824 38.8261 7.1977 38.6035 6.62408 38.2073V51.8359C6.62408 52.3594 6.84151 52.8615 7.22858 53.2316C7.61563 53.6018 8.14058 53.8097 8.68796 53.8097C9.23534 53.8097 9.7603 53.6018 10.1473 53.2316C10.5344 52.8615 10.7518 52.3594 10.7518 51.8359V38.3013C10.11 38.6981 9.35265 38.8891 8.58968 38.8464ZM28.2457 25.6878C27.9794 25.675 27.7132 25.7143 27.4632 25.803C27.2134 25.8917 26.985 26.0282 26.7917 26.204C26.5987 26.3799 26.4452 26.5914 26.3402 26.8258C26.2355 27.0602 26.1814 27.3127 26.1818 27.5676V38.0381C26.1818 38.5616 26.3992 39.0637 26.7862 39.4339C27.1735 39.804 27.6983 40.0119 28.2457 40.0119C28.7931 40.0119 29.3181 39.804 29.7052 39.4339C30.0922 39.0637 30.3096 38.5616 30.3096 38.0381V27.6992C30.3253 27.4279 30.2793 27.1567 30.1747 26.904C30.0702 26.6514 29.9098 26.4234 29.7042 26.2357C29.4986 26.0481 29.2531 25.9053 28.9844 25.8173C28.7157 25.7291 28.4301 25.6977 28.1474 25.7254L28.2457 25.6878ZM21.7199 29.7106C20.9795 29.7057 20.2589 29.4825 19.656 29.0714V42.7376C19.656 43.2611 19.8734 43.7632 20.2604 44.1334C20.6477 44.5035 21.1725 44.7114 21.7199 44.7114C22.2673 44.7114 22.7921 44.5035 23.1794 44.1334C23.5664 43.7632 23.7838 43.2611 23.7838 42.7376V29.0902C23.1603 29.5344 22.399 29.766 21.6216 29.7482L21.7199 29.7106ZM4.12776 40.1811V2.00225C4.12259 1.53686 3.92564 1.09225 3.57969 0.764922C3.23375 0.437591 2.76674 0.25401 2.2801 0.254028H1.84767C1.36102 0.25401 0.894015 0.437591 0.548069 0.764922C0.202123 1.09225 0.00516953 1.53686 0 2.00225V40.1811C0 40.6497 0.194673 41.0992 0.54117 41.4306C0.887666 41.762 1.35764 41.9481 1.84767 41.9481H2.2801C2.77014 41.9481 3.2401 41.762 3.58659 41.4306C3.93311 41.0992 4.12776 40.6497 4.12776 40.1811ZM8.8059 37.399H8.37346C7.88344 37.399 7.41346 37.2129 7.06697 36.8815C6.72047 36.55 6.5258 36.1006 6.5258 35.6319V6.55137C6.53099 6.08601 6.72792 5.64136 7.07387 5.31405C7.41981 4.98672 7.88682 4.80314 8.37346 4.80316H8.8059C9.29254 4.80314 9.75955 4.98672 10.1055 5.31405C10.4514 5.64136 10.6484 6.08601 10.6536 6.55137V35.6695C10.6536 36.1382 10.4589 36.5876 10.1124 36.919C9.7659 37.2505 9.29592 37.4366 8.8059 37.4366V37.399ZM15.312 32.925H14.86C14.3752 32.925 13.9102 32.7408 13.5674 32.413C13.2246 32.0851 13.0319 31.6406 13.0319 31.1768V11.0629C13.0294 10.8317 13.0748 10.6024 13.1654 10.3881C13.256 10.1738 13.3903 9.9789 13.5603 9.81456C13.7303 9.65023 13.9328 9.51977 14.1559 9.43074C14.379 9.34172 14.6182 9.29587 14.86 9.29589H15.312C15.7987 9.30085 16.2636 9.48919 16.6058 9.82003C16.9482 10.1509 17.14 10.5975 17.14 11.0629V31.1768C17.14 31.6406 16.9474 32.0851 16.6046 32.413C16.2618 32.7408 15.797 32.925 15.312 32.925ZM21.8182 28.3195H21.4054C20.9187 28.3195 20.4517 28.136 20.1057 27.8086C19.7598 27.4813 19.5628 27.0367 19.5577 26.5713V15.7436C19.5416 15.5022 19.5774 15.2603 19.6631 15.0327C19.7486 14.8052 19.8823 14.5967 20.0554 14.4206C20.2286 14.2443 20.4377 14.1041 20.6701 14.0082C20.9022 13.9125 21.1524 13.8632 21.4054 13.8638H21.8378C22.3279 13.8638 22.7978 14.0499 23.1444 14.3813C23.4909 14.7127 23.6855 15.1622 23.6855 15.6308V26.5337C23.6881 26.7674 23.6423 26.9991 23.5505 27.2157C23.4589 27.4322 23.3232 27.6292 23.1513 27.7954C22.9795 27.9614 22.775 28.0932 22.5494 28.1832C22.3239 28.2733 22.0822 28.3195 21.8378 28.3195H21.8182ZM28.344 24.2779H27.9115C27.4215 24.2779 26.9515 24.0918 26.605 23.7604C26.2585 23.429 26.0639 22.9795 26.0639 22.5109V19.71C26.069 19.2446 26.2659 18.8 26.6119 18.4727C26.9578 18.1453 27.4249 17.9618 27.9115 17.9618H28.344C28.8307 17.9618 29.2977 18.1453 29.6436 18.4727C29.9896 18.8 30.1865 19.2446 30.1916 19.71V22.5109C30.1916 22.9764 29.9998 23.423 29.6574 23.7538C29.3152 24.0847 28.8503 24.273 28.3636 24.2779H28.344Z" fill="white"/>
<path d="M47.6974 40.828V38.8467L58.8424 22.8034H48.3579V20.3268H62.3372V22.3081L51.2473 38.3513H62.6124V40.828H47.6974ZM65.4214 40.828V20.3268H68.1182V38.3513H77.1168V40.828H65.4214ZM86.8901 41.1582C85.4591 41.1582 84.1658 40.828 83.01 40.1676C81.8542 39.4888 80.9369 38.5623 80.2582 37.3882C79.5794 36.2141 79.24 34.884 79.24 33.398C79.24 31.912 79.5702 30.5911 80.2306 29.4354C80.9094 28.2796 81.8267 27.3623 82.9825 26.6835C84.1383 26.0047 85.4408 25.6653 86.8901 25.6653C88.3211 25.6653 89.6144 26.0047 90.7702 26.6835C91.926 27.344 92.8341 28.2521 93.4945 29.4079C94.1733 30.5636 94.5127 31.8937 94.5127 33.398C94.5127 34.9024 94.1641 36.2416 93.467 37.4157C92.7699 38.5715 91.8434 39.4888 90.6876 40.1676C89.5502 40.828 88.2844 41.1582 86.8901 41.1582ZM86.8901 38.6816C87.8074 38.6816 88.6329 38.4522 89.3668 37.9936C90.1189 37.535 90.706 36.902 91.1279 36.0948C91.5682 35.2876 91.7884 34.3887 91.7884 33.398C91.7884 32.389 91.5682 31.4993 91.1279 30.7287C90.706 29.9399 90.1189 29.3161 89.3668 28.8575C88.6329 28.3805 87.8074 28.142 86.8901 28.142C85.9545 28.142 85.1106 28.3805 84.3584 28.8575C83.6246 29.3161 83.0375 29.9399 82.5972 30.7287C82.1569 31.4993 81.9368 32.389 81.9368 33.398C81.9368 34.3887 82.1569 35.2876 82.5972 36.0948C83.0375 36.902 83.6246 37.535 84.3584 37.9936C85.1106 38.4522 85.9545 38.6816 86.8901 38.6816ZM104.923 46.8821C103.877 46.8821 102.905 46.7169 102.006 46.3867C101.125 46.0565 100.364 45.5979 99.7219 45.0108C99.0981 44.4421 98.6211 43.7725 98.2909 43.002L100.685 41.9012C100.942 42.5984 101.428 43.1854 102.143 43.6624C102.877 44.1577 103.795 44.4054 104.895 44.4054C105.739 44.4054 106.501 44.2403 107.179 43.9101C107.876 43.5982 108.427 43.1212 108.83 42.4791C109.234 41.8554 109.436 41.094 109.436 40.1951V36.8653L109.904 37.3607C109.39 38.3697 108.647 39.1402 107.675 39.6722C106.721 40.2043 105.666 40.4703 104.51 40.4703C103.116 40.4703 101.868 40.1492 100.768 39.5071C99.6668 38.8467 98.8046 37.9569 98.1808 36.8378C97.5571 35.7004 97.2452 34.4437 97.2452 33.0678C97.2452 31.6735 97.5571 30.4169 98.1808 29.2978C98.8046 28.1787 99.6576 27.2981 100.74 26.656C101.841 25.9956 103.088 25.6653 104.483 25.6653C105.638 25.6653 106.684 25.9314 107.62 26.4634C108.574 26.9771 109.335 27.6925 109.904 28.6098L109.518 29.2978V25.9956H112.023V40.1951C112.023 41.4793 111.72 42.6259 111.114 43.6349C110.509 44.6439 109.665 45.4328 108.583 46.0015C107.519 46.5885 106.299 46.8821 104.923 46.8821ZM104.73 37.9936C105.611 37.9936 106.4 37.7735 107.097 37.3332C107.812 36.8929 108.381 36.3058 108.803 35.572C109.225 34.8198 109.436 33.9851 109.436 33.0678C109.436 32.1689 109.225 31.3433 108.803 30.5911C108.381 29.839 107.812 29.2427 107.097 28.8024C106.4 28.3622 105.611 28.142 104.73 28.142C103.831 28.142 103.015 28.3622 102.281 28.8024C101.547 29.2427 100.969 29.839 100.547 30.5911C100.144 31.325 99.942 32.1505 99.942 33.0678C99.942 33.9851 100.144 34.8198 100.547 35.572C100.969 36.3058 101.538 36.8929 102.254 37.3332C102.987 37.7735 103.813 37.9936 104.73 37.9936ZM115.99 40.828V25.9956H118.549V40.828H115.99ZM115.99 23.629V20.3268H118.549V23.629H115.99ZM127.832 41.1582C126.346 41.1582 125.052 40.7913 123.951 40.0575C122.851 39.3237 122.071 38.333 121.612 37.0855L123.649 36.0948C124.071 36.9754 124.649 37.6726 125.382 38.1862C126.116 38.6999 126.933 38.9567 127.832 38.9567C128.639 38.9567 129.308 38.7641 129.84 38.3789C130.372 37.9936 130.638 37.4891 130.638 36.8653C130.638 36.4251 130.51 36.0765 130.253 35.8196C130.015 35.5445 129.721 35.3335 129.373 35.1867C129.024 35.0216 128.703 34.9024 128.409 34.829L126.18 34.1961C124.841 33.8108 123.86 33.2604 123.236 32.545C122.631 31.8295 122.328 30.9948 122.328 30.0408C122.328 29.1602 122.548 28.3988 122.988 27.7567C123.447 27.0963 124.061 26.5826 124.832 26.2157C125.621 25.8488 126.501 25.6653 127.474 25.6653C128.776 25.6653 129.941 25.9956 130.969 26.656C132.014 27.3165 132.757 28.2429 133.198 29.4354L131.106 30.3985C130.776 29.628 130.281 29.0226 129.62 28.5823C128.96 28.1237 128.217 27.8943 127.391 27.8943C126.639 27.8943 126.043 28.087 125.603 28.4722C125.162 28.8391 124.942 29.307 124.942 29.8757C124.942 30.2976 125.052 30.6462 125.272 30.9214C125.492 31.1782 125.758 31.38 126.07 31.5268C126.382 31.6552 126.685 31.7653 126.978 31.857L129.4 32.5725C130.611 32.921 131.546 33.4622 132.207 34.1961C132.886 34.9299 133.225 35.8105 133.225 36.8378C133.225 37.6634 132.996 38.4064 132.537 39.0668C132.079 39.7273 131.446 40.2409 130.638 40.6079C129.831 40.9748 128.896 41.1582 127.832 41.1582ZM142.602 40.9931C141.152 40.9931 140.033 40.5803 139.245 39.7548C138.474 38.9292 138.089 37.7643 138.089 36.2599V28.4447H135.392V25.9956H135.942C136.603 25.9956 137.126 25.7938 137.511 25.3902C137.896 24.9866 138.089 24.4545 138.089 23.7941V22.5833H140.648V25.9956H143.978V28.4447H140.648V36.1774C140.648 36.6727 140.721 37.1038 140.868 37.4708C141.033 37.8377 141.299 38.1312 141.666 38.3513C142.033 38.5531 142.519 38.654 143.125 38.654C143.253 38.654 143.409 38.6449 143.592 38.6265C143.794 38.6082 143.978 38.5898 144.143 38.5715V40.828C143.904 40.883 143.638 40.9197 143.345 40.9381C143.051 40.9748 142.804 40.9931 142.602 40.9931ZM147.486 40.828V25.9956H150.045V40.828H147.486ZM147.486 23.629V20.3268H150.045V23.629H147.486ZM160.896 41.1582C159.446 41.1582 158.153 40.8188 157.016 40.14C155.897 39.4613 155.016 38.5348 154.374 37.3607C153.732 36.1866 153.411 34.8657 153.411 33.398C153.411 31.912 153.732 30.5911 154.374 29.4354C155.016 28.2796 155.897 27.3623 157.016 26.6835C158.153 26.0047 159.446 25.6653 160.896 25.6653C161.868 25.6653 162.776 25.8396 163.62 26.1882C164.464 26.5368 165.207 27.0046 165.849 27.5916C166.491 28.1787 166.959 28.8667 167.253 29.6555L164.968 30.7563C164.62 29.9857 164.088 29.362 163.372 28.885C162.657 28.3897 161.831 28.142 160.896 28.142C159.997 28.142 159.18 28.3713 158.447 28.83C157.731 29.2886 157.162 29.9124 156.74 30.7012C156.319 31.4901 156.108 32.3982 156.108 33.4255C156.108 34.4162 156.319 35.3151 156.74 36.1224C157.162 36.9112 157.731 37.535 158.447 37.9936C159.18 38.4522 159.997 38.6816 160.896 38.6816C161.831 38.6816 162.657 38.4431 163.372 37.9661C164.088 37.4708 164.62 36.8195 164.968 36.0123L167.253 37.1681C166.959 37.9386 166.491 38.6265 165.849 39.2319C165.207 39.819 164.464 40.2868 163.62 40.6354C162.776 40.9839 161.868 41.1582 160.896 41.1582ZM175.908 41.1582C174.422 41.1582 173.129 40.7913 172.028 40.0575C170.927 39.3237 170.148 38.333 169.689 37.0855L171.725 36.0948C172.147 36.9754 172.725 37.6726 173.459 38.1862C174.193 38.6999 175.009 38.9567 175.908 38.9567C176.715 38.9567 177.385 38.7641 177.917 38.3789C178.449 37.9936 178.715 37.4891 178.715 36.8653C178.715 36.4251 178.587 36.0765 178.33 35.8196C178.091 35.5445 177.798 35.3335 177.449 35.1867C177.101 35.0216 176.78 34.9024 176.486 34.829L174.257 34.1961C172.918 33.8108 171.936 33.2604 171.313 32.545C170.707 31.8295 170.404 30.9948 170.404 30.0408C170.404 29.1602 170.625 28.3988 171.065 27.7567C171.524 27.0963 172.138 26.5826 172.909 26.2157C173.697 25.8488 174.578 25.6653 175.55 25.6653C176.853 25.6653 178.018 25.9956 179.045 26.656C180.091 27.3165 180.834 28.2429 181.274 29.4354L179.183 30.3985C178.853 29.628 178.357 29.0226 177.697 28.5823C177.036 28.1237 176.293 27.8943 175.468 27.8943C174.716 27.8943 174.119 28.087 173.679 28.4722C173.239 28.8391 173.019 29.307 173.019 29.8757C173.019 30.2976 173.129 30.6462 173.349 30.9214C173.569 31.1782 173.835 31.38 174.147 31.5268C174.459 31.6552 174.762 31.7653 175.055 31.857L177.477 32.5725C178.687 32.921 179.623 33.4622 180.284 34.1961C180.962 34.9299 181.302 35.8105 181.302 36.8378C181.302 37.6634 181.072 38.4064 180.614 39.0668C180.155 39.7273 179.522 40.2409 178.715 40.6079C177.908 40.9748 176.972 41.1582 175.908 41.1582Z" fill="white"/>
</svg>
